<?xml version="1.0" encoding="UTF-8"?> <svg xmlns="http://www.w3.org/2000/svg" xmlns:xlink="http://www.w3.org/1999/xlink" id="Group_2" data-name="Group 2" width="224.752" height="61.554" viewBox="0 0 224.752 61.554"><defs><clipPath id="clip-path"><rect id="Rectangle_1" data-name="Rectangle 1" width="224.752" height="61.554" fill="#ed1d45"></rect></clipPath></defs><g id="Group_1" data-name="Group 1" clip-path="url(#clip-path)"><path id="Path_1" data-name="Path 1" d="M0,50.43c.181-.341.291-.573.422-.792Q12.833,28.913,25.257,8.2a15.96,15.96,0,0,1,14-8.154C42.33-.039,45.4.022,48.475.023A6.451,6.451,0,0,1,49.141.1c-.564.959-1.072,1.833-1.589,2.7-7.863,13.214-15.7,26.448-23.608,39.633A15.863,15.863,0,0,1,9.955,50.469c-2.989.075-5.981.014-8.972.011-.284,0-.568-.028-.983-.05" transform="translate(0 0)" fill="#ed1d45"></path><path id="Path_2" data-name="Path 2" d="M692.789,140.724c0-1.043,0-1.9,0-2.76,0-.36.046-.633.511-.63,2.317.016,4.634.018,6.951.03a1.1,1.1,0,0,1,.291.114v.939c0,6.091-.133,12.185.042,18.271.14,4.871-3.94,8.072-7.374,8.754-.467.093-.946.129-1.4.189l.69-4.782-.2-.12c-3.869,3.48-8.36,3.814-13.083,2.533a12.49,12.49,0,0,1-7.535-5.618,13.8,13.8,0,0,1,2.874-17.7c4.939-3.921,13.852-4.333,18.228.784m-.351,9.707a6.219,6.219,0,0,0-5.148-6.483,10.129,10.129,0,0,0-3.508-.117,6.187,6.187,0,0,0-5.353,4.2,6.458,6.458,0,0,0,1.313,6.919c1.895,2.012,4.339,2.462,6.976,2.076a6.4,6.4,0,0,0,5.72-6.6" transform="translate(-561.314 -114.782)" fill="#ed1d45"></path><path id="Path_3" data-name="Path 3" d="M1243.024,148.556a4.722,4.722,0,0,0-4.341-5.148,13.329,13.329,0,0,0-9.407,2.085c-.153.1-.314.185-.54.317-.928-1.81-1.85-3.572-2.717-5.36-.072-.149.156-.575.354-.7a18.34,18.34,0,0,1,6.9-2.615,21.447,21.447,0,0,1,10.47.4c4.563,1.451,7,4.682,7.424,9.375.213,2.354.142,4.735.157,7.1.022,3.368-.017,6.737.023,10.1.009.763-.236.96-.965.943-1.993-.044-3.988-.034-5.981,0-.59.009-.837-.161-.8-.775.04-.7.009-1.394.009-2.089-.113-.007-.19-.032-.207-.01a8.583,8.583,0,0,1-6.156,3.142c-3,.3-5.938.112-8.591-1.516a7.654,7.654,0,0,1-3.825-7.65,7.343,7.343,0,0,1,5.114-6.545,17.919,17.919,0,0,1,6.262-1.041c1.966-.041,3.934-.009,5.9-.009Zm-.034,4.874c-1.942,0-3.871-.029-5.8.015a9.1,9.1,0,0,0-2.14.323,2.713,2.713,0,0,0-2.245,2.523,2.851,2.851,0,0,0,1.726,3.01,6.848,6.848,0,0,0,6.628-.568c1.929-1.224,2.207-3.1,1.829-5.3" transform="translate(-1026.599 -114.557)" fill="#ed1d45"></path><path id="Path_4" data-name="Path 4" d="M491.022,148.425a4.754,4.754,0,0,0-4.324-5.137,13.162,13.162,0,0,0-9.608,2.186c-.088.06-.184.108-.38.223l-3-5.826a38.174,38.174,0,0,1,3.648-1.767,21.869,21.869,0,0,1,14.8-.54c4.069,1.372,6.3,4.354,6.906,8.555a24.325,24.325,0,0,1,.216,3.38c.023,4.849,0,9.7.023,14.546,0,.659-.171.891-.855.877-1.992-.041-3.987-.048-5.979,0-.747.019-.932-.254-.881-.936s.011-1.378.011-2.3a7.114,7.114,0,0,1-3.66,2.842c-4.2,1.282-8.321,1.251-12.051-1.379-2.641-1.862-3.443-4.609-3.016-7.706a7.271,7.271,0,0,1,4.974-5.949,17.794,17.794,0,0,1,6.338-1.065c1.992-.039,3.986-.008,5.98-.008h.863m-.012,4.912c-2.252,0-4.458-.028-6.662.019a5.676,5.676,0,0,0-1.72.408,2.57,2.57,0,0,0-1.833,2.245,2.713,2.713,0,0,0,1.238,2.866,6.174,6.174,0,0,0,2.1.765c4.415.73,7.433-2.028,6.88-6.3" transform="translate(-396.256 -114.425)" fill="#ed1d45"></path><path id="Path_5" data-name="Path 5" d="M1131.212,154.107c0,4.419.022,8.838-.007,13.257a9.937,9.937,0,0,1-3.5,8.1,10.823,10.823,0,0,1-7.513,2.16.744.744,0,0,1-.49-.533q-.056-2.707,0-5.415a.84.84,0,0,1,.528-.588,3.013,3.013,0,0,0,2.7-2.961,11.486,11.486,0,0,0,.055-1.29q0-13.216,0-26.432c0-1.094,0-1.095,1.106-1.1,2.1,0,4.2.019,6.3-.011.629-.009.832.184.829.827-.025,4.661-.013,9.323-.013,13.984" transform="translate(-938.488 -116.754)" fill="#ed1d45"></path><path id="Path_6" data-name="Path 6" d="M905.844,137.424h7.72v3.229l.29.208a2.131,2.131,0,0,1,.274-.559c2.321-2.472,5.314-3.233,8.561-3.309.158,0,.459.237.461.367.028,2.359.021,4.719.021,7.054a34.143,34.143,0,0,0-3.632.215,6.122,6.122,0,0,0-5.42,5.75,19.94,19.94,0,0,0-.131,2.256q-.019,5.939,0,11.878c0,.579-.148.814-.768.806-2.235-.029-4.471-.025-6.706,0-.556.006-.744-.169-.743-.738q.022-13.292.013-26.584c0-.159.031-.317.057-.569" transform="translate(-759.201 -114.824)" fill="#ed1d45"></path><path id="Path_7" data-name="Path 7" d="M224.485,220.73a9.046,9.046,0,1,1,9.029-9.077,9.053,9.053,0,0,1-9.029,9.077" transform="translate(-180.549 -169.848)" fill="#ed1d45"></path><path id="Path_8" data-name="Path 8" d="M1041.922,153.231c0-4.337.016-8.674-.016-13.011-.005-.74.2-.974.95-.958,2.154.046,4.31.033,6.464.006.61-.008.848.149.846.813q-.03,13.172,0,26.345c0,.594-.181.8-.785.792-2.208-.028-4.418-.037-6.626,0-.709.013-.844-.266-.841-.9.021-4.364.011-8.728.011-13.092" transform="translate(-873.304 -116.726)" fill="#ed1d45"></path><path id="Path_9" data-name="Path 9" d="M685.58,304.709a19.049,19.049,0,0,0,13.448,3.281,17.9,17.9,0,0,0,12.165-6.562c-.048.465-.071.934-.147,1.394-1.017,6.183-4.65,9.9-10.853,10.964a27.07,27.07,0,0,1-14.227-1.279,22.362,22.362,0,0,1-3.151-1.617.806.806,0,0,1-.275-.733c.921-1.8,1.893-3.564,2.856-5.338.021-.039.088-.054.185-.111" transform="translate(-572.072 -252.651)" fill="#ed1d45"></path><path id="Path_10" data-name="Path 10" d="M247.28,104.646l7.934-13.016.168.053c.016.226.047.453.047.679q0,5.175,0,10.35c0,1.36-.62,1.99-1.958,2q-2.668.01-5.337,0c-.229,0-.459-.032-.854-.061" transform="translate(-207.265 -76.802)" fill="#ed1d45"></path></g></svg> 