<?xml version="1.0" encoding="utf-8"?>
<!-- Generator: Adobe Illustrator 17.1.0, SVG Export Plug-In . SVG Version: 6.00 Build 0)  -->
<!DOCTYPE svg PUBLIC "-//W3C//DTD SVG 1.1//EN" "http://www.w3.org/Graphics/SVG/1.1/DTD/svg11.dtd">
<svg version="1.1" xmlns="http://www.w3.org/2000/svg" xmlns:xlink="http://www.w3.org/1999/xlink" x="0px" y="0px"
	 width="445.4px" height="109.4px" viewBox="0 0 445.4 109.4" enable-background="new 0 0 445.4 109.4" xml:space="preserve">
<path fill-rule="evenodd" clip-rule="evenodd" fill="#AE8A18" d="M69.5,18.6c0,0-9-17.3-26.6-18.4c-43.4-4.6-63.4,65.3-13.7,78
	c15.4,4,45.7,9.2,41.4,31.2c0,0,10.8-21-17.3-32.6C-12,49.9,32.5-7.2,69.5,18.6"/>
<path fill-rule="evenodd" clip-rule="evenodd" fill="#AE8A18" d="M78,11.1c13.6-23,54.2-7.4,42.4,25.9C108,60.1,73.9,48.8,76.6,72.2
	C70,57.4,91.2,49.5,100.2,44.9C118.1,35.9,108-1.5,78,11.1"/>
<path fill-rule="evenodd" clip-rule="evenodd" fill="#AE8A18" d="M69.5,18.6c0,0-9-17.3-26.6-18.4c-43.4-4.6-63.4,65.3-13.7,78
	c15.4,4,45.7,9.2,41.4,31.2c0,0,10.8-21-17.3-32.6C-12,49.9,32.5-7.2,69.5,18.6"/>
<path fill-rule="evenodd" clip-rule="evenodd" fill="#AE8A18" d="M78,11.1c13.6-23,54.2-7.4,42.4,25.9C108,60.1,73.9,48.8,76.6,72.2
	C70,57.4,91.2,49.5,100.2,44.9C118.1,35.9,108-1.5,78,11.1"/>
<path fill="#AE8A18" d="M434.2,44.3c-4-0.2-7.4,0.8-10,3.2c-2.7,2.3-4.3,5.6-4.9,9.8c-0.1,0.7-0.1,1.4-0.1,2c0,4.7,2.2,7,6.6,7
	c2.4,0,4.8-0.8,7.3-2.5c0.8-3.9,2-9.8,3.4-17.6c0-0.3-0.1-0.7-0.5-1.2C435.5,44.5,434.9,44.3,434.2,44.3 M442.9,57.8
	c-0.5,2.8-1.3,7.1-2.2,12.9l-0.7,1.2c-1.6-0.1-2.9-0.4-3.9-0.9c-1-0.5-2.1-1-3.1-1.6c-3.7,1.9-7,2.8-9.9,2.8c-4.1,0-7.3-1.2-9.7-3.5
	c-2.2-2.2-3.2-5-3.2-8.6c0-0.8,0.1-1.6,0.2-2.5c0.8-6,3.6-10.7,8.5-14c4.5-3.1,9.9-4.7,16.4-4.7c3.7,0,6.3,0.3,7.7,1
	c1.6,0.8,2.5,2.1,2.5,3.8c0,0.4,0,0.8-0.1,1.4C444.7,48.2,443.9,52.4,442.9,57.8z M405.5,71.4c-2,0.4-3.8,0.7-5.3,0.7
	c-6.8,0-10.2-2.1-10.2-6.4c0-0.5,0-1,0.1-1.5l3.5-19.8h-5.5l0.3-1.2l1.4-3.6l4.8-0.8l1.4-7.2l9.4-1.8c-0.8,2.4-1.5,5.4-2.2,9
	c1.5,0,4.2-0.1,8.2-0.2c-0.5,1.8-1,3.6-1.4,5.6c-2.9,0-5.4,0-7.7,0c-0.7,3.3-1.4,6.7-2.1,10c-0.9,4.5-1.4,7.7-1.4,9.7
	c0,1.2,0.6,2.1,1.7,2.7c1.1,0.6,3.1,1,5.8,1.2L405.5,71.4z M369.3,71.5l-0.6-0.7c1-4.3,2.3-10.9,3.9-19.8c0.1-0.6,0.1-1.1,0.1-1.7
	c0-3.5-1.5-5.2-4.4-5.2c-2.9,0-6,1-9.4,3c-1.8,9.1-3.2,16.9-4,23.3l-0.8,0.6c-2.9,0.1-5.8,0.2-8.8,0.5c1-4.5,2.3-11,4-19.6
	c0.5-3.3,1-7.2,1.5-11.6c1-0.4,1.6-0.6,2-0.6c1,0,3,0.5,5.9,1.6c4-1.9,8.6-2.8,13.8-2.8c6.3,0,9.4,2.6,9.4,7.7
	c0,0.7-0.1,1.5-0.2,2.3c-0.3,1.8-0.8,4.5-1.5,8.1c-0.7,3.6-1.2,6.3-1.5,8.1c-0.3,1.9-0.6,4-0.8,6.4
	C374.5,71.2,371.6,71.3,369.3,71.5z M329.2,43c-3.9,0-7.3,2.7-10,8l15.9-3.2C333.4,44.6,331.4,43,329.2,43z M340.9,51.9
	c-5.1,1.2-12.7,2.8-22.8,5c-0.4,6.5,2.5,9.8,8.9,9.8c2.1,0,4.1-0.4,6-1.1c1.9-0.7,4.4-2.1,7.6-4.1c-0.9,2.9-1.6,5.4-2.1,7.5
	c-1.3,1-3.6,1.9-6.8,2.5c-2.5,0.5-4.7,0.7-6.6,0.7c-4.9,0-8.9-1.1-11.8-3.3c-2.9-2.2-4.4-5.3-4.4-9.5c0-0.8,0.1-1.7,0.2-2.5
	c0.7-5.3,2.8-9.7,6.4-13.1c3.9-3.9,8.9-5.8,14.8-5.8c3.8,0,6.9,0.9,9.3,2.8c2.4,1.8,4,4.5,4.7,7.8C343.7,49.5,342.5,50.6,340.9,51.9
	z M293.8,43.7c-4.4,0-8,1.1-10.8,3.3c-2.8,2.2-4.5,5.4-5.2,9.7c-0.1,0.7-0.1,1.4-0.1,2c0,2.2,0.6,4,1.8,5.3c1.2,1.3,2.9,2,5.2,2
	c2.6,0,5.3-0.9,8-2.6c1.3-6.2,2.5-12.8,3.7-19.7C295.3,43.7,294.5,43.7,293.8,43.7z M302.7,55.8c-1,5.5-1.6,10.4-2,14.6l-1,0.8
	c-1.4,0-2.7-0.3-3.9-0.7c-1.1-0.5-2.3-0.9-3.4-1.3C288.5,71,285,72,281.9,72c-4.2,0-7.6-1.2-9.9-3.6c-2.3-2.3-3.4-5.2-3.4-8.8
	c0-0.9,0.1-1.7,0.2-2.6c0.9-6.2,3.9-10.9,9-14.2c4.6-3,10.2-4.5,17-4.5c0.9,0,1.8,0,2.8,0.1c0.8-4.3,1.5-8.5,1.9-12.7
	c2.6-0.4,5.8-1.1,9.8-1.9C306.6,34.8,304.5,45.4,302.7,55.8z M254.7,44.3c-4-0.2-7.4,0.8-10,3.2c-2.7,2.3-4.3,5.6-4.9,9.8
	c-0.1,0.7-0.1,1.4-0.1,2c0,4.7,2.2,7,6.6,7c2.4,0,4.8-0.8,7.3-2.5c0.8-3.9,1.9-9.8,3.4-17.6c0-0.3-0.1-0.7-0.5-1.2
	C256,44.5,255.4,44.3,254.7,44.3z M263.4,57.8c-0.5,2.8-1.3,7.1-2.2,12.9l-0.6,1.2c-1.6-0.1-2.9-0.4-3.9-0.9c-1-0.5-2.1-1-3.1-1.6
	c-3.7,1.9-7,2.8-9.9,2.8c-4.1,0-7.3-1.2-9.7-3.5c-2.2-2.2-3.2-5-3.2-8.6c0-0.8,0.1-1.6,0.2-2.5c0.8-6,3.6-10.7,8.5-14
	c4.5-3.1,9.9-4.7,16.4-4.7c3.7,0,6.3,0.3,7.7,1c1.6,0.8,2.5,2.1,2.5,3.8c0,0.4,0,0.8-0.1,1.4C265.2,48.2,264.4,52.4,263.4,57.8z
	 M221.8,71.2c-2,0-4.9,0.2-8.7,0.4c2.9-10.4,4.3-16.6,4.3-18.6c0-0.4-0.1-0.6-0.3-0.6c0.2-1.1,0.3-2.1,0.3-2.9c0-3.3-1.6-5-4.7-5
	c-2.8,0-5.6,0.8-8.3,2.4c-0.3,2.6-1,6.7-2.1,12.1c-1,5.4-1.7,9.5-2,12.2c-1.8,0-4.9,0.2-9.5,0.5c2-8.6,3.4-15.3,4.2-19.9
	c0.2-1.2,0.3-2.2,0.3-3c0-3-1.3-4.5-4-4.5c-2.5,0-5.5,1-9,3c-1,5.2-2.4,13.2-4.2,24.1c-2.6,0-5.8,0.2-9.5,0.5
	c1.9-7.4,3.5-15.5,4.8-24.1c0.4-2.5,0.7-5,0.8-7.2l1.5-0.6c1.2,0,2.3,0.3,3.3,0.7c1,0.4,2,0.8,3,1.1c4.3-2.1,8.8-3.1,13.3-3.1
	c3.5,0,6.2,1.3,8.1,3.8c4.8-2.4,9.4-3.6,13.8-3.6c6.3,0,9.5,2.6,9.5,7.9c0,0.7-0.1,1.3-0.2,2c-1,4.8-2.2,12.2-3.8,22.2L221.8,71.2z
	 M154.1,44.3c-4-0.2-7.4,0.8-10,3.2c-2.7,2.3-4.3,5.6-4.9,9.8c-0.1,0.7-0.1,1.4-0.1,2c0,4.7,2.2,7,6.6,7c2.4,0,4.8-0.8,7.3-2.5
	c0.8-3.9,2-9.8,3.4-17.6c0-0.3-0.1-0.7-0.5-1.2C155.3,44.5,154.8,44.3,154.1,44.3z M162.8,57.8c-0.5,2.8-1.3,7.1-2.2,12.9l-0.6,1.2
	c-1.6-0.1-2.9-0.4-3.9-0.9c-1-0.5-2.1-1-3.1-1.6c-3.7,1.9-7,2.8-9.9,2.8c-4.1,0-7.3-1.2-9.7-3.5c-2.2-2.2-3.2-5-3.2-8.6
	c0-0.8,0.1-1.6,0.2-2.5c0.8-6,3.6-10.7,8.5-14c4.5-3.1,9.9-4.7,16.4-4.7c3.7,0,6.3,0.3,7.7,1c1.6,0.8,2.5,2.1,2.5,3.8
	c0,0.4,0,0.8-0.1,1.4C164.6,48.2,163.8,52.4,162.8,57.8z"/>
</svg>
