<svg width="1544" height="561" viewBox="0 0 1544 561" fill="none" xmlns="http://www.w3.org/2000/svg">
<path d="M81.0986 120.877C115.621 107.817 144.181 108.549 166.566 116.481C189.411 124.577 204.816 139.828 212.997 153.361L282.163 172.663C292.074 175.429 298.93 184.459 298.93 194.749V224.208C298.93 226.807 298.487 229.389 297.622 231.84L289.511 254.822C286.277 263.984 277.621 270.12 267.894 270.12H205.301C205.49 270.12 204.214 270.181 201.157 272.111C198.363 273.875 195.125 276.533 191.693 279.826C188.951 282.457 186.262 285.324 183.773 288.157C196.652 308.091 216.896 344.701 227.512 382.916C234.241 407.142 231.619 431.376 226.004 451.404C220.395 471.409 211.572 488.045 204.831 497.596L197.498 505.907C189.6 519.716 177.709 533.432 161.839 546.763L145.232 560.713L143.058 539.134C140.656 515.309 112.168 448.833 11.251 401.358L4.66699 398.261L4.96191 319.984L27.5957 347.484V383.782C83.7249 411.44 119.068 445.318 140 475.62V421.484L162.93 439.984V514.208C185.007 490.288 189.382 468.956 184.33 451.556C177.898 429.401 154.846 408.071 117.113 392.591C51.132 365.522 15.4001 309.435 5.44531 283.829L4.96191 282.585L4.77734 281.265C-0.762848 241.691 2.5715 212.437 9.62207 191.674C13.1633 181.245 17.7268 172.762 22.6943 166.247C19.4119 163.314 16.3749 159.592 13.7773 155.055C6.28811 141.974 2.30683 122.166 4.70605 93.375C9.70429 33.3966 46.312 8.957 67.3857 4.74219L81.0986 2V120.877ZM142.252 302.642C149.472 316.447 154.369 331.372 157.648 345.278C161.801 362.888 163.526 379.582 163.874 391.644C183.571 405.249 198.217 421.846 205.021 441.045C209.059 424.676 210.272 406.528 205.418 389.053C196.233 355.988 178.976 323.718 167.028 304.561L164.907 304.512C156.838 304.324 149.294 303.675 142.252 302.642ZM80.4648 344.38C93.2683 354.731 108.357 364.215 125.816 371.378C130.666 373.368 135.38 375.484 139.938 377.722C139.069 369.532 137.609 360.203 135.331 350.541C130.789 331.278 123.233 311.709 111.533 297.173L108.669 293.615C97.1711 288.852 87.8477 282.905 80.4648 276.536V344.38ZM58.1689 33.5332C45.608 42.128 30.4644 60.3859 27.5566 95.2793C25.37 121.52 29.3499 136.106 33.6758 143.662C37.9217 151.078 42.293 151.651 42.8828 151.651L48.2021 173.271C44.9727 174.963 37.103 182.058 31.334 199.047C25.7476 215.498 22.4092 240.597 27.2988 276.725C31.8022 287.724 42.0619 305.56 58.4648 323.596V244.073L58.1689 242.975V174.58H58.4648V174.449H80.4648V174.58H176.639V197.51H81.0986V239.747C85.0067 251.058 104.669 278.309 159.631 281.36C163.978 275.807 169.707 269.145 175.818 263.281C179.854 259.409 184.333 255.617 188.915 252.724C193.231 249.998 198.995 247.191 205.301 247.191H267.889L276 224.208V194.749L197.32 172.792L195.046 168.243C190.207 158.566 178.348 144.984 158.908 138.095C139.818 131.33 112.111 130.575 74.6016 148.608L58.1689 156.508V33.5332ZM166.53 104.887H143.601V40.3135C136.892 45.15 132.14 51.7465 128.78 59.083C123.268 71.1194 121.901 84.4797 122.363 92.7842L123.001 104.231L100.106 105.507L99.4688 94.0596C98.8413 82.7933 100.581 65.5892 107.933 49.5361C115.422 33.1819 129.103 17.409 152.233 11.5127L166.53 7.86816V104.887Z" fill="url(#paint0_linear_57388_21960)"/>
<path d="M1505.74 348V192.977H1538.33V348H1505.74Z" fill="#FFFFFF"/>
<path d="M1445.74 348V326.063L1443.65 321.258V281.979C1443.65 275.015 1441.49 269.583 1437.17 265.683C1432.99 261.783 1426.52 259.833 1417.74 259.833C1411.75 259.833 1405.83 260.808 1399.98 262.758C1394.27 264.569 1389.4 267.076 1385.36 270.28L1373.66 247.506C1379.79 243.189 1387.17 239.846 1395.8 237.478C1404.44 235.11 1413.21 233.926 1422.13 233.926C1439.26 233.926 1452.56 237.966 1462.03 246.044C1471.51 254.123 1476.24 266.728 1476.24 283.86V348H1445.74ZM1411.47 349.672C1402.7 349.672 1395.18 348.209 1388.91 345.284C1382.64 342.22 1377.84 338.111 1374.49 332.957C1371.15 327.804 1369.48 322.024 1369.48 315.617C1369.48 308.931 1371.08 303.081 1374.28 298.067C1377.63 293.053 1382.85 289.153 1389.95 286.367C1397.06 283.442 1406.32 281.979 1417.74 281.979H1447.62V300.992H1421.29C1413.63 300.992 1408.34 302.245 1405.41 304.752C1402.63 307.26 1401.24 310.393 1401.24 314.154C1401.24 318.333 1402.84 321.675 1406.04 324.183C1409.38 326.55 1413.91 327.734 1419.62 327.734C1425.05 327.734 1429.93 326.481 1434.25 323.974C1438.56 321.327 1441.7 317.497 1443.65 312.483L1448.66 327.525C1446.29 334.768 1441.98 340.27 1435.71 344.031C1429.44 347.791 1421.36 349.672 1411.47 349.672Z" fill="#FFFFFF"/>
<path d="M1307.67 349.672C1295.56 349.672 1284.76 347.234 1275.29 342.359C1265.82 337.345 1258.37 330.45 1252.94 321.675C1247.64 312.901 1245 302.942 1245 291.799C1245 280.517 1247.64 270.558 1252.94 261.922C1258.37 253.148 1265.82 246.323 1275.29 241.448C1284.76 236.433 1295.56 233.926 1307.67 233.926C1319.51 233.926 1329.82 236.433 1338.6 241.448C1347.37 246.323 1353.85 253.356 1358.03 262.549L1332.75 276.129C1329.82 270.837 1326.13 266.937 1321.67 264.43C1317.35 261.922 1312.62 260.669 1307.47 260.669C1301.89 260.669 1296.88 261.922 1292.42 264.43C1287.97 266.937 1284.41 270.488 1281.77 275.085C1279.26 279.681 1278.01 285.253 1278.01 291.799C1278.01 298.345 1279.26 303.917 1281.77 308.513C1284.41 313.109 1287.97 316.661 1292.42 319.168C1296.88 321.675 1301.89 322.929 1307.47 322.929C1312.62 322.929 1317.35 321.745 1321.67 319.377C1326.13 316.87 1329.82 312.901 1332.75 307.468L1358.03 321.258C1353.85 330.311 1347.37 337.345 1338.6 342.359C1329.82 347.234 1319.51 349.672 1307.67 349.672Z" fill="#FFFFFF"/>
<path d="M1169.94 349.672C1157.96 349.672 1147.3 347.164 1137.97 342.15C1128.78 337.136 1121.46 330.311 1116.03 321.675C1110.74 312.901 1108.09 302.942 1108.09 291.799C1108.09 280.517 1110.74 270.558 1116.03 261.922C1121.46 253.148 1128.78 246.323 1137.97 241.448C1147.3 236.433 1157.96 233.926 1169.94 233.926C1181.77 233.926 1192.36 236.433 1201.69 241.448C1211.02 246.323 1218.34 253.078 1223.63 261.714C1228.92 270.349 1231.57 280.378 1231.57 291.799C1231.57 302.942 1228.92 312.901 1223.63 321.675C1218.34 330.311 1211.02 337.136 1201.69 342.15C1192.36 347.164 1181.77 349.672 1169.94 349.672ZM1169.94 322.929C1175.37 322.929 1180.24 321.675 1184.56 319.168C1188.88 316.661 1192.29 313.109 1194.8 308.513C1197.3 303.777 1198.56 298.206 1198.56 291.799C1198.56 285.253 1197.3 279.681 1194.8 275.085C1192.29 270.488 1188.88 266.937 1184.56 264.43C1180.24 261.922 1175.37 260.669 1169.94 260.669C1164.5 260.669 1159.63 261.922 1155.31 264.43C1150.99 266.937 1147.51 270.488 1144.86 275.085C1142.36 279.681 1141.1 285.253 1141.1 291.799C1141.1 298.206 1142.36 303.777 1144.86 308.513C1147.51 313.109 1150.99 316.661 1155.31 319.168C1159.63 321.675 1164.5 322.929 1169.94 322.929Z" fill="#FFFFFF"/>
<path d="M993.27 348V201.751H1027.12V320.422H1100.45V348H993.27Z" fill="#FFFFFF"/>
<path d="M930.97 348V326.063L928.881 321.258V281.979C928.881 275.015 926.722 269.583 922.404 265.683C918.226 261.783 911.749 259.833 902.974 259.833C896.985 259.833 891.065 260.808 885.215 262.758C879.505 264.569 874.63 267.076 870.59 270.28L858.89 247.506C865.019 243.189 872.401 239.846 881.037 237.478C889.672 235.11 898.447 233.926 907.361 233.926C924.493 233.926 937.795 237.966 947.266 246.044C956.738 254.123 961.473 266.728 961.473 283.86V348H930.97ZM896.706 349.672C887.931 349.672 880.41 348.209 874.142 345.284C867.874 342.22 863.069 338.111 859.726 332.957C856.383 327.804 854.712 322.024 854.712 315.617C854.712 308.931 856.314 303.081 859.517 298.067C862.86 293.053 868.083 289.153 875.187 286.367C882.29 283.442 891.553 281.979 902.974 281.979H932.85V300.992H906.526C898.865 300.992 893.572 302.245 890.647 304.752C887.862 307.26 886.469 310.393 886.469 314.154C886.469 318.333 888.071 321.675 891.274 324.183C894.617 326.55 899.144 327.734 904.854 327.734C910.286 327.734 915.161 326.481 919.479 323.974C923.797 321.327 926.931 317.497 928.881 312.483L933.895 327.525C931.527 334.768 927.209 340.27 920.942 344.031C914.674 347.791 906.595 349.672 896.706 349.672Z" fill="#FFFFFF"/>
<path d="M786.847 233.926C795.761 233.926 803.631 235.737 810.456 239.358C817.42 242.84 822.852 248.273 826.752 255.655C830.791 262.897 832.811 272.229 832.811 283.651V348H800.218V288.665C800.218 279.612 798.338 272.926 794.577 268.608C790.817 264.29 785.524 262.131 778.699 262.131C773.963 262.131 769.715 263.246 765.954 265.474C762.194 267.563 759.269 270.767 757.179 275.085C755.09 279.403 754.045 284.904 754.045 291.59V348H721.453V288.665C721.453 279.612 719.573 272.926 715.812 268.608C712.19 264.29 706.967 262.131 700.142 262.131C695.407 262.131 691.159 263.246 687.398 265.474C683.637 267.563 680.712 270.767 678.623 275.085C676.534 279.403 675.489 284.904 675.489 291.59V348H642.896V235.598H674.027V266.31L668.177 257.326C672.077 249.665 677.578 243.885 684.682 239.985C691.925 235.946 700.142 233.926 709.335 233.926C719.642 233.926 728.626 236.573 736.287 241.865C744.087 247.019 749.24 254.958 751.747 265.683L740.256 262.549C744.017 253.774 750.006 246.81 758.224 241.657C766.581 236.503 776.122 233.926 786.847 233.926Z" fill="#FFFFFF"/>
<path d="M582.895 348V326.063L580.806 321.258V281.979C580.806 275.015 578.647 269.583 574.329 265.683C570.15 261.783 563.674 259.833 554.899 259.833C548.91 259.833 542.99 260.808 537.14 262.758C531.429 264.569 526.554 267.076 522.515 270.28L510.815 247.506C516.944 243.189 524.326 239.846 532.961 237.478C541.597 235.11 550.372 233.926 559.286 233.926C576.418 233.926 589.72 237.966 599.191 246.044C608.663 254.123 613.398 266.728 613.398 283.86V348H582.895ZM548.631 349.672C539.856 349.672 532.335 348.209 526.067 345.284C519.799 342.22 514.994 338.111 511.651 332.957C508.308 327.804 506.637 322.024 506.637 315.617C506.637 308.931 508.238 303.081 511.442 298.067C514.785 293.053 520.008 289.153 527.112 286.367C534.215 283.442 543.477 281.979 554.899 281.979H584.775V300.992H558.451C550.79 300.992 545.497 302.245 542.572 304.752C539.786 307.26 538.394 310.393 538.394 314.154C538.394 318.333 539.995 321.675 543.199 324.183C546.542 326.55 551.068 327.734 556.779 327.734C562.211 327.734 567.086 326.481 571.404 323.974C575.722 321.327 578.856 317.497 580.806 312.483L585.82 327.525C583.452 334.768 579.134 340.27 572.866 344.031C566.599 347.791 558.52 349.672 548.631 349.672Z" fill="#FFFFFF"/>
<path d="M389.341 348V201.751H423.187V320.422H496.52V348H389.341Z" fill="#FFFFFF"/>
<defs>
<linearGradient id="paint0_linear_57388_21960" x1="195.465" y1="44.9844" x2="77.4648" y2="450.984" gradientUnits="userSpaceOnUse">
<stop offset="0.0144231" stop-color="#25C5EA"/>
<stop offset="0.495192" stop-color="#4C69DA"/>
<stop offset="1" stop-color="#6643AC"/>
</linearGradient>
</defs>
</svg>
