<svg width="561" height="561" viewBox="0 0 561 561" fill="none" xmlns="http://www.w3.org/2000/svg">
  <g transform="translate(131 0)">
    <path d="M81.0986 120.877C115.621 107.817 144.181 108.549 166.566 116.481C189.411 124.577 204.816 139.828 212.997 153.361L282.163 172.663C292.074 175.429 298.93 184.459 298.93 194.749V224.208C298.93 226.807 298.487 229.389 297.622 231.84L289.511 254.822C286.277 263.984 277.621 270.12 267.894 270.12H205.301C205.49 270.12 204.214 270.181 201.157 272.111C198.363 273.875 195.125 276.533 191.693 279.826C188.951 282.457 186.262 285.324 183.773 288.157C196.652 308.091 216.896 344.701 227.512 382.916C234.241 407.142 231.619 431.376 226.004 451.404C220.395 471.409 211.572 488.045 204.831 497.596L197.498 505.907C189.6 519.716 177.709 533.432 161.839 546.763L145.232 560.713L143.058 539.134C140.656 515.309 112.168 448.833 11.251 401.358L4.66699 398.261L4.96191 319.984L27.5957 347.484V383.782C83.7249 411.44 119.068 445.318 140 475.62V421.484L162.93 439.984V514.208C185.007 490.288 189.382 468.956 184.33 451.556C177.898 429.401 154.846 408.071 117.113 392.591C51.132 365.522 15.4001 309.435 5.44531 283.829L4.96191 282.585L4.77734 281.265C-0.762848 241.691 2.5715 212.437 9.62207 191.674C13.1633 181.245 17.7268 172.762 22.6943 166.247C19.4119 163.314 16.3749 159.592 13.7773 155.055C6.28811 141.974 2.30683 122.166 4.70605 93.375C9.70429 33.3966 46.312 8.957 67.3857 4.74219L81.0986 2V120.877ZM142.252 302.642C149.472 316.447 154.369 331.372 157.648 345.278C161.801 362.888 163.526 379.582 163.874 391.644C183.571 405.249 198.217 421.846 205.021 441.045C209.059 424.676 210.272 406.528 205.418 389.053C196.233 355.988 178.976 323.718 167.028 304.561L164.907 304.512C156.838 304.324 149.294 303.675 142.252 302.642ZM80.4648 344.38C93.2683 354.731 108.357 364.215 125.816 371.378C130.666 373.368 135.38 375.484 139.938 377.722C139.069 369.532 137.609 360.203 135.331 350.541C130.789 331.278 123.233 311.709 111.533 297.173L108.669 293.615C97.1711 288.852 87.8477 282.905 80.4648 276.536V344.38ZM58.1689 33.5332C45.608 42.128 30.4644 60.3859 27.5566 95.2793C25.37 121.52 29.3499 136.106 33.6758 143.662C37.9217 151.078 42.293 151.651 42.8828 151.651L48.2021 173.271C44.9727 174.963 37.103 182.058 31.334 199.047C25.7476 215.498 22.4092 240.597 27.2988 276.725C31.8022 287.724 42.0619 305.56 58.4648 323.596V244.073L58.1689 242.975V174.58H58.4648V174.449H80.4648V174.58H176.639V197.51H81.0986V239.747C85.0067 251.058 104.669 278.309 159.631 281.36C163.978 275.807 169.707 269.145 175.818 263.281C179.854 259.409 184.333 255.617 188.915 252.724C193.231 249.998 198.995 247.191 205.301 247.191H267.889L276 224.208V194.749L197.32 172.792L195.046 168.243C190.207 158.566 178.348 144.984 158.908 138.095C139.818 131.33 112.111 130.575 74.6016 148.608L58.1689 156.508V33.5332ZM166.53 104.887H143.601V40.3135C136.892 45.15 132.14 51.7465 128.78 59.083C123.268 71.1194 121.901 84.4797 122.363 92.7842L123.001 104.231L100.106 105.507L99.4688 94.0596C98.8413 82.7933 100.581 65.5892 107.933 49.5361C115.422 33.1819 129.103 17.409 152.233 11.5127L166.53 7.86816V104.887Z" fill="url(#paint0_linear)"/>
  </g>
  <defs>
    <linearGradient id="paint0_linear" x1="326.465" y1="44.9844" x2="208.465" y2="450.984" gradientUnits="userSpaceOnUse">
      <stop offset="0.0144231" stop-color="#25C5EA"/>
      <stop offset="0.495192" stop-color="#4C69DA"/>
      <stop offset="1" stop-color="#6643AC"/>
    </linearGradient>
  </defs>
</svg>
