<svg width="191" height="58" viewBox="0 0 191 58" fill="none" xmlns="http://www.w3.org/2000/svg">
<g id="HanseTrailer_logo 1" clip-path="url(#clip0_1198_5802)">
<g id="g10">
<g id="g12">
<path id="path14" d="M5.88672 22.2686V8.98053H8.57174V14.2103H13.8332V8.98053H16.5182V22.2686H13.8332V16.4587H8.57174V22.2686H5.88672Z" fill="#2744A0"/>
</g>
<g id="g16">
<path id="path18" d="M26.3215 17.0113L24.4901 12.08L22.6935 17.0113H26.3215ZM31.2659 22.2686H28.3449L27.1833 19.2506H21.8678L20.77 22.2686H17.9219L23.1018 8.98101H25.9407L31.2659 22.2686Z" fill="#2744A0"/>
</g>
<g id="g20">
<path id="path22" d="M32.6992 22.2686V8.98053H35.3118L40.7547 17.8546V8.98053H43.2487V22.2686H40.555L35.1941 13.6032V22.2686H32.6992Z" fill="#2744A0"/>
</g>
<g id="g24">
<g id="Clip path group">
<mask id="mask0_1198_5802" style="mask-type:luminance" maskUnits="userSpaceOnUse" x="0" y="0" width="191" height="58">
<g id="clipPath30">
<path id="path28" d="M0 0H191V58H0V0Z" fill="white"/>
</g>
</mask>
<g mask="url(#mask0_1198_5802)">
<g id="g26">
<g id="g32">
<path id="path34" d="M45.3867 17.9449L47.9993 17.6907C48.1567 18.5669 48.4752 19.2106 48.9563 19.6214C49.4374 20.0322 50.0855 20.2381 50.902 20.2381C51.7673 20.2381 52.4182 20.0554 52.8564 19.6894C53.2955 19.3244 53.5146 18.8972 53.5146 18.4068C53.5146 18.0929 53.422 17.8258 53.2386 17.6049C53.0538 17.3846 52.7314 17.1922 52.2725 17.0297C51.9574 16.9202 51.2403 16.7273 50.1222 16.4491C48.6822 16.0928 47.6727 15.6554 47.0921 15.1347C46.2761 14.4037 45.8678 13.5126 45.8678 12.461C45.8678 11.785 46.0599 11.1509 46.4435 10.5621C46.8272 9.97291 47.3817 9.52448 48.1036 9.21636C48.8265 8.90824 49.6994 8.75298 50.7206 8.75298C52.3902 8.75298 53.6454 9.11944 54.4899 9.85043C55.3334 10.5819 55.7764 11.5578 55.8189 12.7778L53.1339 12.8959C53.0186 12.2131 52.7724 11.7228 52.3941 11.4233C52.0158 11.1239 51.4492 10.9749 50.6935 10.9749C49.9132 10.9749 49.3023 11.135 48.8612 11.4551C48.5765 11.6606 48.4341 11.9354 48.4341 12.2802C48.4341 12.5941 48.5673 12.8631 48.8342 13.0864C49.1725 13.3704 49.9948 13.6674 51.3016 13.9755C52.6079 14.2831 53.574 14.6019 54.1999 14.9312C54.8258 15.2601 55.3156 15.7109 55.6693 16.2818C56.0225 16.8522 56.1997 17.5577 56.1997 18.3976C56.1997 19.1595 55.9878 19.8717 55.5646 20.5371C55.1414 21.202 54.543 21.6958 53.769 22.0188C52.9949 22.3419 52.0298 22.5039 50.8755 22.5039C49.1942 22.5039 47.9028 22.1157 47.0019 21.3389C46.1004 20.5626 45.5614 19.4309 45.3867 17.9449Z" fill="#2744A0"/>
</g>
<g id="g36">
<path id="path38" d="M58.4414 22.2686V8.98053H68.3022V11.2285H61.1259V14.1741H67.8028V16.4124H61.1259V20.0298H68.5561V22.2686H58.4414Z" fill="#2744A0"/>
</g>
<g id="g40">
<path id="path42" d="M73.8097 22.2686V11.2285H69.8633V8.98053H80.433V11.2285H76.4947V22.2686H73.8097Z" fill="#2744A0"/>
</g>
<g id="g44">
<path id="path46" d="M84.8413 14.6004H86.8275C88.1155 14.6004 88.9195 14.5464 89.2409 14.4369C89.5613 14.3289 89.8122 14.1413 89.9941 13.8752C90.1751 13.609 90.2653 13.2778 90.2653 12.8785C90.2653 12.431 90.1466 12.0704 89.9073 11.7946C89.6689 11.5202 89.3316 11.3461 88.8958 11.2738C88.6782 11.2434 88.0253 11.2285 86.9366 11.2285H84.8413V14.6004ZM82.1562 22.2686V8.98101H87.8071C89.2288 8.98101 90.2615 9.10011 90.9052 9.33831C91.549 9.57747 92.0648 10.0013 92.4519 10.6122C92.8384 11.2222 93.0329 11.9199 93.0329 12.7059C93.0329 13.7035 92.7395 14.5266 92.1522 15.1761C91.5664 15.8251 90.6886 16.235 89.5217 16.4042C90.1022 16.7432 90.5819 17.1145 90.9602 17.5195C91.3381 17.9241 91.8472 18.643 92.4881 19.6759L94.1119 22.2686H90.9009L88.96 19.3764C88.2699 18.3436 87.798 17.6926 87.5441 17.4231C87.2903 17.1555 87.0215 16.9703 86.7368 16.871C86.453 16.7717 86.0023 16.721 85.3851 16.721H84.8413V22.2686H82.1562Z" fill="#2744A0"/>
</g>
<g id="g48">
<path id="path50" d="M102.59 17.0113L100.759 12.08L98.9621 17.0113H102.59ZM107.534 22.2686H104.613L103.452 19.2506H98.1364L97.0395 22.2686H94.1914L99.3703 8.98101H102.209L107.534 22.2686Z" fill="#2744A0"/>
</g>
<path id="path52" d="M108.859 8.98052H111.544V22.2686H108.859V8.98052Z" fill="#2744A0"/>
<g id="g54">
<path id="path56" d="M114.156 22.2686V9.0895H116.841V20.0298H123.518V22.2686H114.156Z" fill="#2744A0"/>
</g>
<g id="g58">
<path id="path60" d="M125.414 22.2686V8.98053H135.274V11.2285H128.099V14.1741H134.775V16.4124H128.099V20.0298H135.528V22.2686H125.414Z" fill="#2744A0"/>
</g>
<g id="g62">
<path id="path64" d="M140.481 14.6004H142.468C143.757 14.6004 144.561 14.5464 144.881 14.4369C145.201 14.3289 145.452 14.1413 145.634 13.8752C145.815 13.609 145.906 13.2778 145.906 12.8785C145.906 12.431 145.787 12.0704 145.547 11.7946C145.309 11.5202 144.972 11.3461 144.537 11.2738C144.318 11.2434 143.665 11.2285 142.577 11.2285H140.481V14.6004ZM137.797 22.2686V8.98101H143.448C144.869 8.98101 145.902 9.10011 146.545 9.33831C147.19 9.57747 147.705 10.0013 148.092 10.6122C148.48 11.2222 148.673 11.9199 148.673 12.7059C148.673 13.7035 148.38 14.5266 147.793 15.1761C147.207 15.8251 146.33 16.235 145.163 16.4042C145.742 16.7432 146.222 17.1145 146.6 17.5195C146.978 17.9241 147.488 18.643 148.129 19.6759L149.753 22.2686H146.542L144.6 19.3764C143.91 18.3436 143.439 17.6926 143.185 17.4231C142.931 17.1555 142.663 16.9703 142.378 16.871C142.093 16.7717 141.643 16.721 141.026 16.721H140.481V22.2686H137.797Z" fill="#2744A0"/>
</g>
<g id="g66">
<path id="path68" d="M187.398 11.5338C187.398 11.5338 110.968 68.9609 16.0336 41.3568L5.01172 44.8011C5.01172 44.8011 99.257 77.5067 187.398 11.5338Z" fill="#ED1C24"/>
</g>
<g id="g70">
<path id="path72" d="M9.08041 34.0679V31.2895L6.55078 27.5092H7.60713L8.90138 29.4871C9.13977 29.857 9.36223 30.2263 9.56829 30.5966C9.76518 30.2538 10.004 29.8671 10.2844 29.4375L11.556 27.5092H12.5679L9.94855 31.2895V34.0679H9.08041Z" fill="#ED1C24"/>
</g>
<g id="g74">
<path id="path76" d="M13.9772 30.8868C13.9772 31.6776 14.19 32.3001 14.6152 32.7548C15.0408 33.209 15.574 33.4366 16.2158 33.4366C16.8697 33.4366 17.4073 33.2071 17.8295 32.7476C18.2523 32.2886 18.4636 31.6371 18.4636 30.7933C18.4636 30.259 18.3729 29.7928 18.1924 29.3945C18.012 28.9972 17.7475 28.6881 17.4001 28.4687C17.0526 28.2493 16.6617 28.1403 16.2293 28.1403C15.6146 28.1403 15.0857 28.351 14.6422 28.773C14.1992 29.1949 13.9772 29.8998 13.9772 30.8868ZM13.082 30.8733C13.082 29.7851 13.3745 28.9326 13.9593 28.3173C14.5447 27.7015 15.2994 27.3934 16.225 27.3934C16.8306 27.3934 17.3769 27.5381 17.8633 27.8269C18.3498 28.1167 18.7209 28.5198 18.9757 29.0367C19.2314 29.5546 19.3588 30.1414 19.3588 30.7972C19.3588 31.4626 19.2242 32.0576 18.9554 32.5827C18.6871 33.1068 18.3068 33.5046 17.8141 33.7746C17.3219 34.0442 16.7906 34.1792 16.2202 34.1792C15.6025 34.1792 15.0504 34.0302 14.564 33.7317C14.0771 33.4337 13.7084 33.0268 13.458 32.5108C13.207 31.9949 13.082 31.4491 13.082 30.8733Z" fill="#ED1C24"/>
</g>
<g id="g78">
<path id="path80" d="M24.7856 27.5091H25.6537V31.2981C25.6537 31.9578 25.5794 32.4809 25.4303 32.8686C25.2802 33.2563 25.0119 33.5712 24.6215 33.8142C24.2326 34.0577 23.7215 34.1792 23.0884 34.1792C22.4736 34.1792 21.9708 34.0731 21.5799 33.8614C21.189 33.6498 20.9101 33.3436 20.7426 32.9424C20.5752 32.5412 20.4922 31.9935 20.4922 31.2981V27.5091H21.3603V31.2943C21.3603 31.8638 21.4134 32.2828 21.5196 32.5533C21.6253 32.8233 21.8072 33.0311 22.0654 33.1772C22.3235 33.3238 22.6396 33.3961 23.0126 33.3961C23.6506 33.3961 24.1061 33.252 24.3778 32.9626C24.6495 32.6733 24.7856 32.1174 24.7856 31.2943V27.5091Z" fill="#ED1C24"/>
</g>
<g id="g82">
<path id="path84" d="M27.9814 30.4038H29.8485C30.2452 30.4038 30.5559 30.3628 30.7798 30.2808C31.0038 30.1988 31.1736 30.0677 31.2899 29.8873C31.4067 29.7065 31.4651 29.5103 31.4651 29.2986C31.4651 28.9885 31.3517 28.7335 31.1268 28.5338C30.9015 28.3342 30.5453 28.2344 30.0589 28.2344H27.9814V30.4038ZM27.1133 34.0679V27.5092H30.0227C30.608 27.5092 31.053 27.5685 31.3575 27.6862C31.662 27.8038 31.9052 28.0121 32.0871 28.3101C32.2691 28.6081 32.3603 28.9379 32.3603 29.2986C32.3603 29.7639 32.2097 30.1564 31.9081 30.4751C31.6065 30.7948 31.1408 30.9973 30.5111 31.0836C30.7412 31.1945 30.9154 31.3025 31.0351 31.4101C31.289 31.6425 31.5293 31.9337 31.7556 32.2823L32.8978 34.0679H31.8053L30.9362 32.7033C30.6828 32.3093 30.4734 32.008 30.3093 31.7997C30.1453 31.5909 29.9986 31.4448 29.8688 31.3609C29.7389 31.278 29.6067 31.2196 29.4726 31.1868C29.3741 31.1661 29.2129 31.1555 28.989 31.1555H27.9814V34.0679H27.1133Z" fill="#ED1C24"/>
</g>
<g id="g86">
<path id="path88" d="M37.0991 33.2935H38.7336C39.0134 33.2935 39.2103 33.2834 39.3242 33.2626C39.524 33.2265 39.691 33.1667 39.8256 33.0832C39.9598 32.9998 40.0698 32.8783 40.1567 32.7192C40.2435 32.5591 40.2865 32.3754 40.2865 32.1661C40.2865 31.9217 40.2242 31.7095 40.0987 31.5287C39.9733 31.3483 39.7996 31.2215 39.5771 31.1482C39.3546 31.0754 39.0347 31.0388 38.6168 31.0388H37.0991V33.2935ZM37.0991 30.2649H38.5183C38.9029 30.2649 39.1795 30.2398 39.3464 30.1892C39.5674 30.1236 39.7339 30.0141 39.8454 29.8627C39.9578 29.7099 40.0133 29.5199 40.0133 29.2899C40.0133 29.0724 39.9617 28.8805 39.857 28.7147C39.7523 28.5497 39.6031 28.436 39.4092 28.3747C39.2152 28.314 38.8822 28.2831 38.4112 28.2831H37.0991V30.2649ZM36.2305 34.0674V27.5092H38.693C39.1944 27.5092 39.5969 27.5762 39.8994 27.7088C40.2025 27.8409 40.4394 28.0454 40.6112 28.3207C40.783 28.597 40.8689 28.8858 40.8689 29.1867C40.8689 29.4669 40.7927 29.7311 40.6402 29.9785C40.4882 30.2263 40.2585 30.4259 39.9511 30.5783C40.3478 30.694 40.6532 30.8927 40.8665 31.1733C41.0798 31.4535 41.1869 31.7847 41.1869 32.1661C41.1869 32.4733 41.1218 32.7587 40.9915 33.023C40.8622 33.2867 40.7015 33.4902 40.5104 33.6334C40.3198 33.7766 40.0804 33.8851 39.7918 33.9574C39.5037 34.0307 39.151 34.0674 38.7336 34.0674H36.2305Z" fill="#ED1C24"/>
</g>
<g id="g90">
<path id="path92" d="M46.6919 27.5091H47.5605V31.2981C47.5605 31.9578 47.4862 32.4809 47.3366 32.8686C47.187 33.2563 46.9182 33.5712 46.5283 33.8142C46.1388 34.0577 45.6278 34.1792 44.9947 34.1792C44.3804 34.1792 43.877 34.0731 43.4861 33.8614C43.0953 33.6498 42.8163 33.3436 42.6489 32.9424C42.4819 32.5412 42.3984 31.9935 42.3984 31.2981V27.5091H43.2671V31.2943C43.2671 31.8638 43.3201 32.2828 43.4258 32.5533C43.532 32.8233 43.7139 33.0311 43.9721 33.1772C44.2303 33.3238 44.5459 33.3961 44.9189 33.3961C45.5573 33.3961 46.0129 33.252 46.2841 32.9626C46.5558 32.6733 46.6919 32.1174 46.6919 31.2943V27.5091Z" fill="#ED1C24"/>
</g>
<g id="g94">
<path id="path96" d="M48.7109 31.9607L49.5299 31.8893C49.5685 32.2172 49.6592 32.4867 49.8006 32.6965C49.9429 32.9067 50.1625 33.0769 50.4612 33.2062C50.7594 33.3363 51.0953 33.401 51.4688 33.401C51.7994 33.401 52.0923 33.3523 52.3461 33.2534C52.6 33.1555 52.7882 33.02 52.9127 32.8484C53.0362 32.6767 53.0985 32.4906 53.0985 32.2871C53.0985 32.0817 53.0381 31.9018 52.9194 31.7485C52.7997 31.5947 52.6024 31.466 52.3283 31.3613C52.1521 31.2924 51.7622 31.1863 51.1595 31.0412C50.5563 30.897 50.134 30.7605 49.8928 30.6323C49.5791 30.4683 49.3455 30.2644 49.1916 30.0213C49.0381 29.7783 48.9619 29.5064 48.9619 29.205C48.9619 28.8742 49.0555 28.5647 49.2437 28.2768C49.4314 27.9889 49.7065 27.771 50.0674 27.6215C50.4284 27.4725 50.8299 27.3978 51.2719 27.3978C51.7579 27.3978 52.1869 27.4764 52.5585 27.6326C52.9305 27.7893 53.2162 28.0198 53.416 28.324C53.6158 28.6283 53.7234 28.9726 53.7383 29.3574L52.9054 29.4196C52.861 29.0054 52.709 28.6924 52.4509 28.4803C52.1932 28.2686 51.8119 28.163 51.3076 28.163C50.7816 28.163 50.399 28.2589 50.1586 28.4513C49.9188 28.6432 49.7986 28.8761 49.7986 29.1471C49.7986 29.3824 49.8836 29.5768 50.0539 29.7282C50.2209 29.881 50.6571 30.0363 51.3631 30.1964C52.0691 30.3555 52.5536 30.4948 52.8162 30.6144C53.1984 30.7904 53.4802 31.0127 53.6621 31.2832C53.844 31.5527 53.9352 31.8642 53.9352 32.2153C53.9352 32.5649 53.8353 32.8937 53.6356 33.2023C53.4353 33.5104 53.1482 33.7505 52.7732 33.9217C52.3992 34.0939 51.9774 34.1797 51.5089 34.1797C50.9143 34.1797 50.4168 34.0929 50.0153 33.9198C49.6143 33.7472 49.2992 33.4868 49.0709 33.1391C48.8427 32.792 48.722 32.399 48.7109 31.9607Z" fill="#ED1C24"/>
</g>
<path id="path98" d="M55.2695 27.5092H56.1382V34.0679H55.2695V27.5092Z" fill="#ED1C24"/>
<g id="g100">
<path id="path102" d="M57.6602 34.0679V27.5092H58.551L61.9985 32.6584V27.5092H62.8309V34.0679H61.9401L58.4931 28.9143V34.0679H57.6602Z" fill="#ED1C24"/>
</g>
<g id="g104">
<path id="path106" d="M64.3086 34.0679V27.5092H69.0542V28.2836H65.1767V30.2924H68.8076V31.0619H65.1767V33.294H69.2057V34.0679H64.3086Z" fill="#ED1C24"/>
</g>
<g id="g108">
<path id="path110" d="M70.1094 31.9607L70.9283 31.8893C70.9669 32.2172 71.0576 32.4867 71.199 32.6965C71.3414 32.9067 71.5609 33.0769 71.8597 33.2062C72.1579 33.3363 72.4938 33.401 72.8673 33.401C73.1978 33.401 73.4907 33.3523 73.7446 33.2534C73.9984 33.1555 74.1866 33.02 74.3111 32.8484C74.4346 32.6767 74.4969 32.4906 74.4969 32.2871C74.4969 32.0817 74.4366 31.9018 74.3179 31.7485C74.1982 31.5947 74.0008 31.466 73.7267 31.3613C73.5506 31.2924 73.1607 31.1863 72.5579 31.0412C71.9547 30.897 71.5325 30.7605 71.2912 30.6323C70.9775 30.4683 70.744 30.2644 70.59 30.0213C70.4366 29.7783 70.3603 29.5064 70.3603 29.205C70.3603 28.8742 70.4539 28.5647 70.6421 28.2768C70.8299 27.9889 71.1049 27.771 71.4659 27.6215C71.8268 27.4725 72.2283 27.3978 72.6704 27.3978C73.1563 27.3978 73.5853 27.4764 73.9569 27.6326C74.329 27.7893 74.6146 28.0198 74.8144 28.324C75.0142 28.6283 75.1218 28.9726 75.1368 29.3574L74.3039 29.4196C74.2595 29.0054 74.1075 28.6924 73.8493 28.4803C73.5916 28.2686 73.2104 28.163 72.7061 28.163C72.1801 28.163 71.7974 28.2589 71.5571 28.4513C71.3172 28.6432 71.1971 28.8761 71.1971 29.1471C71.1971 29.3824 71.282 29.5768 71.4524 29.7282C71.6193 29.881 72.0556 30.0363 72.7616 30.1964C73.4676 30.3555 73.9521 30.4948 74.2146 30.6144C74.5968 30.7904 74.8786 31.0127 75.0605 31.2832C75.2425 31.5527 75.3337 31.8642 75.3337 32.2153C75.3337 32.5649 75.2338 32.8937 75.034 33.2023C74.8337 33.5104 74.5466 33.7505 74.1716 33.9217C73.7977 34.0939 73.3759 34.1797 72.9073 34.1797C72.3128 34.1797 71.8153 34.0929 71.4138 33.9198C71.0127 33.7472 70.6976 33.4868 70.4694 33.1391C70.2411 32.792 70.1205 32.399 70.1094 31.9607Z" fill="#ED1C24"/>
</g>
<g id="g112">
<path id="path114" d="M76.2227 31.9607L77.0421 31.8893C77.0807 32.2172 77.1714 32.4867 77.3133 32.6965C77.4547 32.9067 77.6752 33.0769 77.9734 33.2062C78.2716 33.3363 78.607 33.401 78.9805 33.401C79.3121 33.401 79.6045 33.3523 79.8579 33.2534C80.1117 33.1555 80.3008 33.02 80.4244 32.8484C80.5484 32.6767 80.6102 32.4906 80.6102 32.2871C80.6102 32.0817 80.5508 31.9018 80.4311 31.7485C80.3119 31.5947 80.1146 31.466 79.84 31.3613C79.6639 31.2924 79.2744 31.1863 78.6717 31.0412C78.069 30.897 77.6467 30.7605 77.4045 30.6323C77.0918 30.4683 76.8577 30.2644 76.7043 30.0213C76.5508 29.7783 76.4736 29.5064 76.4736 29.205C76.4736 28.8742 76.5677 28.5647 76.7554 28.2768C76.9436 27.9889 77.2182 27.771 77.5796 27.6215C77.9406 27.4725 78.3421 27.3978 78.7837 27.3978C79.2696 27.3978 79.6996 27.4764 80.0711 27.6326C80.4422 27.7893 80.7279 28.0198 80.9282 28.324C81.128 28.6283 81.2356 28.9726 81.2505 29.3574L80.4176 29.4196C80.3732 29.0054 80.2217 28.6924 79.9635 28.4803C79.7054 28.2686 79.3236 28.163 78.8194 28.163C78.2943 28.163 77.9116 28.2589 77.6713 28.4513C77.431 28.6432 77.3109 28.8761 77.3109 29.1471C77.3109 29.3824 77.3963 29.5768 77.5656 29.7282C77.7331 29.881 78.1698 30.0363 78.8758 30.1964C79.5813 30.3555 80.0654 30.4948 80.3284 30.6144C80.7101 30.7904 80.9924 31.0127 81.1748 31.2832C81.3567 31.5527 81.4474 31.8642 81.4474 32.2153C81.4474 32.5649 81.3471 32.8937 81.1473 33.2023C80.9475 33.5104 80.6599 33.7505 80.2859 33.9217C79.9114 34.0939 79.4897 34.1797 79.0211 34.1797C78.427 34.1797 77.9295 34.0929 77.528 33.9198C77.1265 33.7472 76.8119 33.4868 76.5836 33.1391C76.3544 32.792 76.2347 32.399 76.2227 31.9607Z" fill="#ED1C24"/>
</g>
<g id="g116">
<path id="path118" d="M86.0522 30.6275H87.7494C88.3102 30.6275 88.7088 30.5229 88.9443 30.3146C89.1798 30.1058 89.298 29.8121 89.298 29.4331C89.298 29.1588 89.2285 28.9239 89.09 28.7286C88.951 28.5329 88.7681 28.4041 88.5413 28.3419C88.3946 28.3034 88.1253 28.2836 87.7311 28.2836H86.0522V30.6275ZM85.1836 34.0679V27.5092H87.6597C88.0949 27.5092 88.4279 27.5304 88.6576 27.5724C88.98 27.6259 89.2502 27.7276 89.4683 27.8786C89.6855 28.029 89.8616 28.2402 89.9943 28.5112C90.1266 28.7831 90.1936 29.0811 90.1936 29.4061C90.1936 29.964 90.016 30.4361 89.6609 30.8223C89.3052 31.2085 88.6634 31.4014 87.7354 31.4014H86.0522V34.0679H85.1836Z" fill="#ED1C24"/>
</g>
<g id="g120">
<path id="path122" d="M91.7925 31.3744H94.0176L93.3324 29.5585C93.1239 29.0069 92.9685 28.5536 92.8672 28.1987C92.7837 28.6187 92.6655 29.0368 92.5135 29.4514L91.7925 31.3744ZM89.8984 34.0679L92.4194 27.5092H93.3551L96.0415 34.0679H95.0518L94.2864 32.0818H91.5416L90.8206 34.0679H89.8984Z" fill="#ED1C24"/>
</g>
<g id="g124">
<path id="path126" d="M97.6142 30.4038H99.4813C99.878 30.4038 100.189 30.3628 100.413 30.2808C100.637 30.1988 100.806 30.0677 100.923 29.8873C101.04 29.7065 101.098 29.5103 101.098 29.2986C101.098 28.9885 100.985 28.7335 100.76 28.5338C100.534 28.3342 100.178 28.2344 99.6917 28.2344H97.6142V30.4038ZM96.7461 34.0679V27.5092H99.6555C100.241 27.5092 100.686 27.5685 100.99 27.6862C101.295 27.8038 101.538 28.0121 101.72 28.3101C101.902 28.6081 101.993 28.9379 101.993 29.2986C101.993 29.7639 101.843 30.1564 101.541 30.4751C101.239 30.7948 100.774 30.9973 100.144 31.0836C100.374 31.1945 100.548 31.3025 100.668 31.4101C100.922 31.6425 101.162 31.9337 101.388 32.2823L102.531 34.0679H101.438L100.569 32.7033C100.316 32.3093 100.107 32.008 99.9422 31.7997C99.7781 31.5909 99.6314 31.4448 99.5016 31.3609C99.3718 31.278 99.2395 31.2196 99.1054 31.1868C99.0069 31.1661 98.8458 31.1555 98.6218 31.1555H97.6142V34.0679H96.7461Z" fill="#ED1C24"/>
</g>
<g id="g128">
<path id="path130" d="M104.861 34.0679V28.2836H102.699V27.5092H107.901V28.2836H105.73V34.0679H104.861Z" fill="#ED1C24"/>
</g>
<g id="g132">
<path id="path134" d="M108.781 34.0679V27.5092H109.672L113.12 32.6584V27.5092H113.952V34.0679H113.061L109.614 28.9143V34.0679H108.781Z" fill="#ED1C24"/>
</g>
<g id="g136">
<path id="path138" d="M115.43 34.0679V27.5092H120.175V28.2836H116.298V30.2924H119.929V31.0619H116.298V33.294H120.327V34.0679H115.43Z" fill="#ED1C24"/>
</g>
<g id="g140">
<path id="path142" d="M122.407 30.4038H124.274C124.671 30.4038 124.982 30.3628 125.206 30.2808C125.43 30.1988 125.599 30.0677 125.716 29.8873C125.832 29.7065 125.891 29.5103 125.891 29.2986C125.891 28.9885 125.777 28.7335 125.553 28.5338C125.327 28.3342 124.971 28.2344 124.485 28.2344H122.407V30.4038ZM121.539 34.0679V27.5092H124.448C125.034 27.5092 125.479 27.5685 125.783 27.6862C126.088 27.8038 126.331 28.0121 126.513 28.3101C126.695 28.6081 126.786 28.9379 126.786 29.2986C126.786 29.7639 126.635 30.1564 126.334 30.4751C126.032 30.7948 125.567 30.9973 124.937 31.0836C125.167 31.1945 125.341 31.3025 125.461 31.4101C125.715 31.6425 125.955 31.9337 126.181 32.2823L127.324 34.0679H126.231L125.362 32.7033C125.109 32.3093 124.9 32.008 124.735 31.7997C124.571 31.5909 124.424 31.4448 124.295 31.3609C124.165 31.278 124.032 31.2196 123.898 31.1868C123.8 31.1661 123.639 31.1555 123.415 31.1555H122.407V34.0679H121.539Z" fill="#ED1C24"/>
</g>
</g>
</g>
</g>
</g>
</g>
</g>
<defs>
<clipPath id="clip0_1198_5802">
<rect width="191" height="58" fill="white"/>
</clipPath>
</defs>
</svg>
